# AST/ASF file generated using VICON BodyLanguage
# -----------------------------------------------
:version 1.10
:name VICON
:units
  mass 1.0
  length 0.45
  angle deg
:documentation
   .ast/.asf automatically generated from VICON data using
   VICON BodyBuilder and BodyLanguage model FoxedUp or BRILLIANT.MOD
:root
   order TX TY TZ RX RY RZ
   axis XYZ
   position 0 0 0  
   orientation 0 0 0 
:bonedata
  begin
     id 1 
     name lhipjoint
     direction 0.710188 -0.616876 0.339259 
     length 2.5669 
     axis 0 0 0  XYZ
  end
  begin
     id 2 
     name lfemur
     direction 0.34202 -0.939693 0  
     length 7.12796  
     axis 0 0 20  XYZ
    dof rx ry rz
    limits (-160.0 20.0)
           (-70.0 70.0)
           (-60.0 70.0)
  end
  begin
     id 3 
     name ltibia
     direction 0.34202 -0.939693 0   
     length 7.58108   
     axis 0 0 20   XYZ
    dof rx
    limits (-10.0 170.0)
  end
  begin
     id 4 
     name lfoot
     direction 0.0669471 -0.183936 0.980656   
     length 2.17365   
     axis -90 7.62852e-016 20   XYZ
    dof rx rz
    limits (-45.0 90.0)
           (-70.0 20.0)
  end
  begin
     id 5 
     name ltoes
     direction 1.53508e-011 -4.21705e-011 1   
     length 1.09427   
     axis -90 7.62852e-016 20   XYZ
    dof rx
    limits (-90.0 20.0)
  end
  begin
     id 6 
     name rhipjoint
     direction -0.700191 -0.625589 0.34405   
     length 2.53115  
     axis 0 0 0  XYZ 
  end
  begin
     id 7 
     name rfemur
     direction -0.34202 -0.939693 0   
     length 7.33006   
     axis 0 0 -20   XYZ
    dof rx ry rz
    limits (-160.0 20.0)
           (-70.0 70.0)
           (-70.0 60.0)
  end
  begin
     id 8 
     name rtibia
     direction -0.34202 -0.939693 0   
     length 7.64926   
     axis 0 0 -20   XYZ
    dof rx
    limits (-10.0 170.0)
 end
 begin
     id 9 
     name rfoot
     direction -0.0688927 -0.189281 0.979503   
     length 2.20493  
     axis -90 -7.62852e-016 -20   XYZ
    dof rx rz
    limits (-45.0 90.0)
           (-20.0 70.0)
  end
  begin
     id 10 
     name rtoes
     direction -1.53567e-011 -4.21933e-011 1   
     length 1.10919   
     axis -90 -7.62852e-016 -20   XYZ
    dof rx
    limits (-90.0 20.0)
  end
  begin
     id 11 
     name lowerback
     direction -0.0167868 0.989873 -0.140959   
     length 2.14596   
     axis 0 0 0   XYZ
    dof rx ry rz
    limits (-20.0 45.0)
           (-30.0 30.0)
           (-30.0 30.0)
  end
  begin
     id 12 
     name upperback
     direction 0.0129109 0.998033 0.0613525   
     length 2.10457   
     axis 0 0 0   XYZ
    dof rx ry rz
    limits (-20.0 45.0)
           (-30.0 30.0)
           (-30.0 30.0)
  end
  begin
     id 13 
     name thorax
     direction 0.0177047 0.991119 0.131797   
     length 2.17652   
     axis 0 0 0   XYZ
    dof rx ry rz
    limits (-20.0 45.0)
           (-30.0 30.0)
           (-30.0 30.0)
  end
  begin
     id 14 
     name lowerneck
     direction -0.0336893 0.997548 0.0613464   
     length 1.8912   
     axis 0 0 0   XYZ
    dof rx ry rz
    limits (-20.0 45.0)
           (-30.0 30.0)
           (-30.0 30.0)
  end
  begin
     id 15 
     name upperneck
     direction 0.0435909 0.997179 -0.0611028   
     length 1.8829   
     axis 0 0 0   XYZ
    dof rx ry rz
    limits (-20.0 45.0)
           (-30.0 30.0)
           (-30.0 30.0)
  end
  begin
     id 16
     name head
     direction 0.0175076 0.999444 -0.0283782  
     length 1.93197  
     axis 0 0 0   XYZ
    dof rx ry rz
    limits (-20.0 45.0)
           (-30.0 30.0)
           (-30.0 30.0)
  end
  begin
     id 17 
     name lclavicle
     direction 0.919164 0.389875 0.0559876  
     length 3.60004  
     axis 0 0 0   XYZ
    dof ry rz
    limits (-20.0 10.0)
           (0.0 20.0)
  end
  begin
     id 18 
     name lhumerus
     direction 1 -4.48958e-011 6.89191e-027   
     length 5.43301   
     axis 180 -30 -90   XYZ
    dof rx ry rz
    limits (-60.0 90.0)
           (-90.0 90.0)
           (-90.0 90.0)
  end
  begin
     id 19
     name lradius
     direction 1 -4.4897e-011 3.24727e-027   
     length 3.15936   
     axis 180 -30 -90   XYZ
    dof rx
    limits (-10.0 170.0)
  end
  begin
     id 20
     name lwrist
     direction 1 -4.4897e-011 9.00228e-027   
     length 1.57968   
     axis -6.29373e-015 90 90   XYZ
    dof ry
    limits (-180.0 0.0)
 end
  begin
     id 21 
     name lhand
     direction 1 -4.48968e-011 1.80042e-026   
     length 0.712827   
     axis -1.14882e-014 90 90   XYZ
    dof rx rz
    limits (-90.0 90.0)
           (-45.0 45.0)
  end
  begin
     id 22 
     name lfingers
     direction 1 -4.49019e-011 3.60267e-026   
     length 0.574699   
     axis -2.29769e-014 90 90   XYZ
    dof rx
    limits (0.0 90.0)
  end
  begin
     id 23
     name lthumb
     direction 0.707107 -6.3498e-011 0.707107   
     length 0.825157   
     axis -90 45 5.37419e-014   XYZ
    dof rx rz
    limits (-45.0 45.0)
           (-45.0 45.0)
  end
  begin
     id 24 
     name rclavicle
     direction -0.890334 0.455305 -0.00132111   
     length 3.51494  
     axis 0 0 0   XYZ 
    dof ry rz
    limits (-10.0 20.0)
           (-20.0 0.0)
  end
  begin
     id 25 
     name rhumerus
     direction -1 -4.48967e-011 5.07175e-028  
     length 5.34194   
     axis 180 30 90   XYZ
    dof rx ry rz
    limits (-90.0 60.0)
           (-90.0 90.0)
           (-90.0 90.0)
  end
  begin
     id 26 
     name rradius
     direction -1 -4.48955e-011 3.30467e-027   
     length 3.19351   
     axis 180 30 90   XYZ
    dof rx
    limits (-10.0 170.0)
  end
  begin
     id 27 
     name rwrist
     direction -1 -4.48968e-011 9.00208e-027   
     length 1.59676   
     axis -6.29373e-015 -90 -90   XYZ
    dof ry
    limits (-180.0 0.0)
  end
  begin
     id 28
     name rhand
     direction -1 -4.49e-011 1.80099e-026   
     length 0.743862   
     axis -1.14882e-014 -90 -90   XYZ
    dof rx rz
    limits (-90.0 90.0)
           (-45.0 45.0)
  end
  begin
     id 29
     name rfingers
     direction -1 -4.49009e-011 3.6023e-026   
     length 0.599721   
     axis -2.29769e-014 -90 -90   XYZ
    dof rx
    limits (0.0 90.0)
  end
  begin
     id 30
     name rthumb
     direction -0.707107 -6.35025e-011 0.707107   
     length 0.861083   
     axis -90 -45 -5.37419e-014   XYZ
    dof rx rz
    limits (-45.0 45.0)
           (-45.0 45.0)
  end
:hierarchy
  begin
    root lhipjoint rhipjoint lowerback
    lhipjoint lfemur
    lfemur ltibia
    ltibia lfoot
    lfoot ltoes
    rhipjoint rfemur
    rfemur rtibia
    rtibia rfoot
    rfoot rtoes
    lowerback upperback
    upperback thorax
    thorax lowerneck lclavicle rclavicle
    lowerneck upperneck
    upperneck head
    lclavicle lhumerus
    lhumerus lradius
    lradius lwrist
    lwrist lhand lthumb
    lhand lfingers
    rclavicle rhumerus
    rhumerus rradius
    rradius rwrist
    rwrist rhand rthumb
    rhand rfingers
  end

#!OML:ASF H:\Martial Arts Walks\Project 1\Capture day 1\Session 1\male.ASF
:FULLY-SPECIFIED
:DEGREES
599
root -3.30413 15.2952 -4.548 7.02996 -45.9489 -6.48838
lowerback 13.7955 1.59926 2.81098
upperback 0.590875 2.70415 2.4073
thorax -7.10718 1.24821 0.436647
lowerneck -1.88323 7.72119 2.52309
upperneck 3.14058 10.3356 -3.1959
head 1.61487 5.1354 -1.1915
rclavicle -3.67255e-014 -2.5842e-014
rhumerus -47.9899 27.3452 -73.9138
rradius 102.42
rwrist 4.87387
rhand -17.3357 -32.9445
rfingers 7.12502
rthumb 8.91141 -62.7363
lclavicle -3.67255e-014 -2.5842e-014
lhumerus -21.5141 -10.5009 77.5622
lradius 104.749
lwrist 27.0136
lhand -31.3691 12.321
lfingers 7.12502
lthumb -4.63953 42.2502
rfemur -17.9722 -4.59391 17.8199
rtibia 59.1146
rfoot -26.4628 -28.9603
rtoes -19.8391
lfemur -45.8843 21.7132 1.14513
ltibia 47.5056
lfoot 19.4405 7.89059
ltoes 4.15806
600
root -3.31117 15.2762 -4.48299 6.85625 -45.1249 -6.49532
lowerback 13.689 1.60185 2.83032
upperback 0.557396 2.70783 2.3958
thorax -7.08183 1.25016 0.415446
lowerneck -2.1216 7.58097 2.54434
upperneck 3.17733 10.1421 -3.13112
head 1.65943 5.03785 -1.17009
rclavicle 3.18055e-014 -3.97569e-015
rhumerus -48.0772 27.0158 -73.8316
rradius 102.393
rwrist 4.87806
rhand -17.3371 -32.9899
rfingers 7.12502
rthumb 8.91005 -62.7817
lclavicle 3.18055e-014 -3.97569e-015
lhumerus -21.5903 -10.5047 77.6596
lradius 104.725
lwrist 27.0777
lhand -31.218 12.4058
lfingers 7.12502
lthumb -4.49364 42.3382
rfemur -17.3701 -5.19947 17.7086
rtibia 59.0375
rfoot -26.6428 -29.1246
rtoes -20.1285
lfemur -46.0526 22.3004 0.399318
ltibia 47.5133
lfoot 17.9744 6.57566
ltoes 2.40399
601
root -3.3169 15.2609 -4.41658 6.64649 -44.325 -6.45866
lowerback 13.5764 1.57747 2.80287
upperback 0.515873 2.66975 2.39995
thorax -7.06495 1.23348 0.445241
lowerneck -2.22475 7.48859 2.53382
upperneck 3.17015 10.0154 -3.08437
head 1.66773 4.97451 -1.15367
rclavicle -1.0625e-013 -1.39149e-014
rhumerus -48.123 26.8092 -73.7963
rradius 102.298
rwrist 5.00024
rhand -17.4752 -32.5761
rfingers 7.12502
rthumb 8.77675 -62.3736
lclavicle -1.0625e-013 -1.39149e-014
lhumerus -21.6357 -10.4663 77.7165
lradius 104.627
lwrist 27.0986
lhand -31.1777 12.5263
lfingers 7.12502
lthumb -4.45474 42.4594
rfemur -16.74 -5.61726 17.5703
rtibia 58.9214
rfoot -26.5602 -29.4975
rtoes -20.8764
lfemur -46.2613 22.8223 -0.36618
ltibia 47.5674
lfoot 16.7194 5.7555
ltoes 1.1845
602
root -3.32098 15.2448 -4.35144 6.48098 -43.461 -6.44659
lowerback 13.4737 1.53711 2.82732
upperback 0.461669 2.61999 2.41299
thorax -7.06536 1.20919 0.457035
lowerneck -2.28303 7.3724 2.51988
upperneck 3.13448 9.85886 -3.07838
head 1.66052 4.89605 -1.15263
rclavicle -6.13251e-014 3.02153e-014
rhumerus -48.2137 26.5699 -73.7323
rradius 102.252
rwrist 5.08026
rhand -17.4823 -33.266
rfingers 7.12502
rthumb 8.76993 -63.0638
lclavicle -6.13251e-014 3.02153e-014
lhumerus -21.679 -10.4446 77.822
lradius 104.505
lwrist 26.9344
lhand -31.11 12.5168
lfingers 7.12502
lthumb -4.38938 42.4513
rfemur -16.0906 -6.03236 17.4361
rtibia 58.7675
rfoot -26.6863 -29.6489
rtoes -21.4261
lfemur -46.6147 23.2392 -1.16968
ltibia 47.6872
lfoot 15.6677 5.25511
ltoes 0.949174
603
root -3.32487 15.2297 -4.28842 6.26131 -42.57 -6.36225
lowerback 13.3899 1.49169 2.84198
upperback 0.416411 2.55858 2.36939
thorax -7.06451 1.17871 0.416039
lowerneck -2.36479 7.24702 2.47096
upperneck 3.10873 9.68505 -2.91997
head 1.64894 4.81106 -1.09794
rclavicle -1.09829e-014 4.77083e-015
rhumerus -48.2701 26.2352 -73.7436
rradius 102.174
rwrist 5.20491
rhand -17.5129 -33.164
rfingers 7.12502
rthumb 8.74042 -62.963
lclavicle -1.09829e-014 4.77083e-015
lhumerus -21.5967 -10.5477 77.8704
lradius 104.322
lwrist 26.7647
lhand -31.0162 12.498
lfingers 7.12502
lthumb -4.29879 42.4343
rfemur -15.4211 -6.33659 17.2662
rtibia 58.5968
rfoot -26.6559 -29.9546
rtoes -22.2393
lfemur -47.0478 23.6214 -2.10344
ltibia 47.8944
lfoot 14.6223 5.155
ltoes 1.5517
604
root -3.32972 15.2146 -4.22707 6.07123 -41.6426 -6.32361
lowerback 13.2546 1.46946 2.75393
upperback 0.414116 2.51519 2.43458
thorax -6.99831 1.16305 0.546281
lowerneck -2.40464 7.08779 2.38403
upperneck 3.02775 9.4715 -2.87184
head 1.61603 4.70451 -1.07509
rclavicle -2.46493e-014 1.66979e-014
rhumerus -48.3292 25.9022 -73.6095
rradius 102.179
rwrist 5.34959
rhand -17.5413 -33.1386
rfingers 7.12502
rthumb 8.71303 -62.9388
lclavicle -2.46493e-014 1.66979e-014
lhumerus -21.4318 -10.5607 78.0958
lradius 104.111
lwrist 26.5007
lhand -31.025 12.559
lfingers 7.12502
lthumb -4.3073 42.4952
rfemur -14.7265 -6.64125 17.1483
rtibia 58.4136
rfoot -26.7083 -30.2109
rtoes -22.9319
lfemur -47.5984 24.0834 -3.11832
ltibia 48.1965
lfoot 13.7838 4.81725
ltoes 1.86263
